name rise45.9887peak57.8056fall74.9286.mot
datacolumns 19
datarows 36
range 10.59329700000000 10.65162900000000
endheader
time	ground_force1_vx	ground_force1_vy	ground_force1_vz	ground_force1_px	ground_force1_py	ground_force1_pz	ground_force2_vx	ground_force2_vy	ground_force2_vz	ground_force2_px	ground_force2_py	ground_force2_pz	ground_torque1_x	ground_torque1_y	ground_torque1_z	ground_torque2_x	ground_torque2_y	ground_torque2_z	
10.59329700000000	10.41401200000000	714.97097299999996	42.82059700000000	0.25465100000000	0.00000000000000	0.10760100000000	0.00000000000000	0.00000000000000	0.00000000000000	0.00000000000000	0.00000000000000	0.00000000000000	0.00000000000000	19.42138500000000	0.00000000000000	0.00000000000000	0.00000000000000	0.00000000000000	
10.59496000000000	10.03303000000000	716.29629000000000	42.92885400000000	0.25405700000000	0.00000000000000	0.10756700000000	0.00000000000000	0.00000000000000	0.00000000000000	0.00000000000000	0.00000000000000	0.00000000000000	0.00000000000000	19.51059900000000	0.00000000000000	0.00000000000000	0.00000000000000	0.00000000000000	
10.59663100000000	9.64022000000000	717.64382999999998	43.04353300000000	0.25343700000000	0.00000000000000	0.10753500000000	0.00000000000000	0.00000000000000	0.00000000000000	0.00000000000000	0.00000000000000	0.00000000000000	0.00000000000000	19.60371000000000	0.00000000000000	0.00000000000000	0.00000000000000	0.00000000000000	
10.59829400000000	9.23523300000000	719.01231099999995	43.16443900000000	0.25279100000000	0.00000000000000	0.10750500000000	0.00000000000000	0.00000000000000	0.00000000000000	0.00000000000000	0.00000000000000	0.00000000000000	0.00000000000000	19.70060300000000	0.00000000000000	0.00000000000000	0.00000000000000	0.00000000000000	
10.59996600000000	8.81776600000000	720.40049999999997	43.29137500000000	0.25211600000000	0.00000000000000	0.10747600000000	0.00000000000000	0.00000000000000	0.00000000000000	0.00000000000000	0.00000000000000	0.00000000000000	0.00000000000000	19.80116200000000	0.00000000000000	0.00000000000000	0.00000000000000	0.00000000000000	
10.60163300000000	8.38756700000000	721.80721500000004	43.42414300000000	0.25141200000000	0.00000000000000	0.10744900000000	0.00000000000000	0.00000000000000	0.00000000000000	0.00000000000000	0.00000000000000	0.00000000000000	0.00000000000000	19.90526800000000	0.00000000000000	0.00000000000000	0.00000000000000	0.00000000000000	
10.60329900000000	7.94443500000000	723.23131999999998	43.56253900000000	0.25067700000000	0.00000000000000	0.10742400000000	0.00000000000000	0.00000000000000	0.00000000000000	0.00000000000000	0.00000000000000	0.00000000000000	0.00000000000000	20.01280400000000	0.00000000000000	0.00000000000000	0.00000000000000	0.00000000000000	
10.60496500000000	7.48822200000000	724.67172100000005	43.70635800000000	0.24991200000000	0.00000000000000	0.10740000000000	0.00000000000000	0.00000000000000	0.00000000000000	0.00000000000000	0.00000000000000	0.00000000000000	0.00000000000000	20.12365100000000	0.00000000000000	0.00000000000000	0.00000000000000	0.00000000000000	
10.60662800000000	7.01883200000000	726.12736700000005	43.85539100000000	0.24911500000000	0.00000000000000	0.10737800000000	0.00000000000000	0.00000000000000	0.00000000000000	0.00000000000000	0.00000000000000	0.00000000000000	0.00000000000000	20.23768900000000	0.00000000000000	0.00000000000000	0.00000000000000	0.00000000000000	
10.60829200000000	6.53622500000000	727.59724600000004	44.00942900000000	0.24828500000000	0.00000000000000	0.10735700000000	0.00000000000000	0.00000000000000	0.00000000000000	0.00000000000000	0.00000000000000	0.00000000000000	0.00000000000000	20.35479900000000	0.00000000000000	0.00000000000000	0.00000000000000	0.00000000000000	
10.60996600000000	6.04041300000000	729.08037899999999	44.16826000000000	0.24742400000000	0.00000000000000	0.10733900000000	0.00000000000000	0.00000000000000	0.00000000000000	0.00000000000000	0.00000000000000	0.00000000000000	0.00000000000000	20.47486000000000	0.00000000000000	0.00000000000000	0.00000000000000	0.00000000000000	
10.61163300000000	5.53146200000000	730.57582100000002	44.33166900000000	0.24653200000000	0.00000000000000	0.10732200000000	0.00000000000000	0.00000000000000	0.00000000000000	0.00000000000000	0.00000000000000	0.00000000000000	0.00000000000000	20.59775100000000	0.00000000000000	0.00000000000000	0.00000000000000	0.00000000000000	
10.61329300000000	5.00949400000000	732.08265300000005	44.49944100000000	0.24560700000000	0.00000000000000	0.10730600000000	0.00000000000000	0.00000000000000	0.00000000000000	0.00000000000000	0.00000000000000	0.00000000000000	0.00000000000000	20.72335000000000	0.00000000000000	0.00000000000000	0.00000000000000	0.00000000000000	
10.61496400000000	4.47468100000000	733.59998499999995	44.67136000000000	0.24465200000000	0.00000000000000	0.10729300000000	0.00000000000000	0.00000000000000	0.00000000000000	0.00000000000000	0.00000000000000	0.00000000000000	0.00000000000000	20.85153500000000	0.00000000000000	0.00000000000000	0.00000000000000	0.00000000000000	
10.61663000000000	3.92725200000000	735.12694499999998	44.84720900000000	0.24366700000000	0.00000000000000	0.10728100000000	0.00000000000000	0.00000000000000	0.00000000000000	0.00000000000000	0.00000000000000	0.00000000000000	0.00000000000000	20.98218400000000	0.00000000000000	0.00000000000000	0.00000000000000	0.00000000000000	
10.61829800000000	3.36748400000000	736.66268000000002	45.02677000000000	0.24265400000000	0.00000000000000	0.10727000000000	0.00000000000000	0.00000000000000	0.00000000000000	0.00000000000000	0.00000000000000	0.00000000000000	0.00000000000000	21.11517500000000	0.00000000000000	0.00000000000000	0.00000000000000	0.00000000000000	
10.61996300000000	2.79570800000000	738.20635500000003	45.20982500000000	0.24161200000000	0.00000000000000	0.10726100000000	0.00000000000000	0.00000000000000	0.00000000000000	0.00000000000000	0.00000000000000	0.00000000000000	0.00000000000000	21.25038300000000	0.00000000000000	0.00000000000000	0.00000000000000	0.00000000000000	
10.62162500000000	2.21230100000000	739.75714300000004	45.39615600000000	0.24054400000000	0.00000000000000	0.10725400000000	0.00000000000000	0.00000000000000	0.00000000000000	0.00000000000000	0.00000000000000	0.00000000000000	0.00000000000000	21.38768600000000	0.00000000000000	0.00000000000000	0.00000000000000	0.00000000000000	
10.62329400000000	1.61769200000000	741.31422699999996	45.58554600000000	0.23945100000000	0.00000000000000	0.10724700000000	0.00000000000000	0.00000000000000	0.00000000000000	0.00000000000000	0.00000000000000	0.00000000000000	0.00000000000000	21.52695800000000	0.00000000000000	0.00000000000000	0.00000000000000	0.00000000000000	
10.62495700000000	1.01235400000000	742.87679500000002	45.77777900000000	0.23833500000000	0.00000000000000	0.10724200000000	0.00000000000000	0.00000000000000	0.00000000000000	0.00000000000000	0.00000000000000	0.00000000000000	0.00000000000000	21.66807500000000	0.00000000000000	0.00000000000000	0.00000000000000	0.00000000000000	
10.62662600000000	0.39680200000000	744.44403999999997	45.97264000000000	0.23719700000000	0.00000000000000	0.10723800000000	0.00000000000000	0.00000000000000	0.00000000000000	0.00000000000000	0.00000000000000	0.00000000000000	0.00000000000000	21.81090900000000	0.00000000000000	0.00000000000000	0.00000000000000	0.00000000000000	
10.62829300000000	-0.22840200000000	746.01514999999995	46.16991600000000	0.23604000000000	0.00000000000000	0.10723400000000	0.00000000000000	0.00000000000000	0.00000000000000	0.00000000000000	0.00000000000000	0.00000000000000	0.00000000000000	21.95533400000000	0.00000000000000	0.00000000000000	0.00000000000000	0.00000000000000	
10.62995800000000	-0.86266000000000	747.58931399999994	46.36939500000000	0.23486600000000	0.00000000000000	0.10723200000000	0.00000000000000	0.00000000000000	0.00000000000000	0.00000000000000	0.00000000000000	0.00000000000000	0.00000000000000	22.10122200000000	0.00000000000000	0.00000000000000	0.00000000000000	0.00000000000000	
10.63162500000000	-1.50533600000000	749.16571299999998	46.57086900000000	0.23367700000000	0.00000000000000	0.10723000000000	0.00000000000000	0.00000000000000	0.00000000000000	0.00000000000000	0.00000000000000	0.00000000000000	0.00000000000000	22.24844200000000	0.00000000000000	0.00000000000000	0.00000000000000	0.00000000000000	
10.63329200000000	-2.15575800000000	750.74352199999998	46.77413100000000	0.23247500000000	0.00000000000000	0.10722800000000	0.00000000000000	0.00000000000000	0.00000000000000	0.00000000000000	0.00000000000000	0.00000000000000	0.00000000000000	22.39686300000000	0.00000000000000	0.00000000000000	0.00000000000000	0.00000000000000	
10.63496400000000	-2.81322300000000	752.32190600000001	46.97897900000000	0.23126200000000	0.00000000000000	0.10722700000000	0.00000000000000	0.00000000000000	0.00000000000000	0.00000000000000	0.00000000000000	0.00000000000000	0.00000000000000	22.54635200000000	0.00000000000000	0.00000000000000	0.00000000000000	0.00000000000000	
10.63664100000000	-3.47700100000000	753.90001600000005	47.18521300000000	0.23004100000000	0.00000000000000	0.10722600000000	0.00000000000000	0.00000000000000	0.00000000000000	0.00000000000000	0.00000000000000	0.00000000000000	0.00000000000000	22.69677400000000	0.00000000000000	0.00000000000000	0.00000000000000	0.00000000000000	
10.63829600000000	-4.14633400000000	755.47699399999999	47.39263700000000	0.22881400000000	0.00000000000000	0.10722500000000	0.00000000000000	0.00000000000000	0.00000000000000	0.00000000000000	0.00000000000000	0.00000000000000	0.00000000000000	22.84799100000000	0.00000000000000	0.00000000000000	0.00000000000000	0.00000000000000	
10.63996200000000	-4.82044100000000	757.05196400000000	47.60106000000000	0.22758400000000	0.00000000000000	0.10722400000000	0.00000000000000	0.00000000000000	0.00000000000000	0.00000000000000	0.00000000000000	0.00000000000000	0.00000000000000	22.99986300000000	0.00000000000000	0.00000000000000	0.00000000000000	0.00000000000000	
10.64163100000000	-5.49852400000000	758.62403700000004	47.81029400000000	0.22635300000000	0.00000000000000	0.10722300000000	0.00000000000000	0.00000000000000	0.00000000000000	0.00000000000000	0.00000000000000	0.00000000000000	0.00000000000000	23.15225000000000	0.00000000000000	0.00000000000000	0.00000000000000	0.00000000000000	
10.64329900000000	-6.17976700000000	760.19230600000003	48.02015700000000	0.22512300000000	0.00000000000000	0.10722100000000	0.00000000000000	0.00000000000000	0.00000000000000	0.00000000000000	0.00000000000000	0.00000000000000	0.00000000000000	23.30500600000000	0.00000000000000	0.00000000000000	0.00000000000000	0.00000000000000	
10.64495800000000	-6.86334400000000	761.75584800000001	48.23047100000000	0.22389600000000	0.00000000000000	0.10721800000000	0.00000000000000	0.00000000000000	0.00000000000000	0.00000000000000	0.00000000000000	0.00000000000000	0.00000000000000	23.45798400000000	0.00000000000000	0.00000000000000	0.00000000000000	0.00000000000000	
10.64662800000000	-7.54841600000000	763.31371999999999	48.44106100000000	0.22267600000000	0.00000000000000	0.10721500000000	0.00000000000000	0.00000000000000	0.00000000000000	0.00000000000000	0.00000000000000	0.00000000000000	0.00000000000000	23.61103500000000	0.00000000000000	0.00000000000000	0.00000000000000	0.00000000000000	
10.64829200000000	-8.23414300000000	764.86496499999998	48.65176100000000	0.22146400000000	0.00000000000000	0.10721100000000	0.00000000000000	0.00000000000000	0.00000000000000	0.00000000000000	0.00000000000000	0.00000000000000	0.00000000000000	23.76400500000000	0.00000000000000	0.00000000000000	0.00000000000000	0.00000000000000	
10.64996300000000	-8.91968000000000	766.40860599999996	48.86240700000000	0.22026300000000	0.00000000000000	0.10720600000000	0.00000000000000	0.00000000000000	0.00000000000000	0.00000000000000	0.00000000000000	0.00000000000000	0.00000000000000	23.91674000000000	0.00000000000000	0.00000000000000	0.00000000000000	0.00000000000000	
10.65162900000000	-9.60418600000000	767.94365000000005	49.07284100000000	0.21907300000000	0.00000000000000	0.10720000000000	0.00000000000000	0.00000000000000	0.00000000000000	0.00000000000000	0.00000000000000	0.00000000000000	0.00000000000000	24.06908000000000	0.00000000000000	0.00000000000000	0.00000000000000	0.00000000000000	
